<?xml version="1.0" encoding="utf-8"?>
<!-- Generator: Adobe Illustrator 23.1.1, SVG Export Plug-In . SVG Version: 6.00 Build 0)  -->
<svg version="1.1" id="Layer_1" xmlns="http://www.w3.org/2000/svg" xmlns:xlink="http://www.w3.org/1999/xlink" x="0px" y="0px"
	 viewBox="0 0 327.9 104.6" style="enable-background:new 0 0 327.9 104.6;" xml:space="preserve">
<style type="text/css">
	.st0{fill:#FFFFFF;}
</style>
<g>
	<path class="st0" d="M135.5,84c-4.4,0-8.1-0.4-11-1.1c-2.9-0.7-5.3-1.9-7-3.5c-1.8-1.6-3-3.7-3.7-6.3c-0.7-2.6-1.1-5.8-1.1-9.6
		V44.6c0-3.8,0.4-7,1.1-9.6c0.7-2.6,2-4.8,3.7-6.4c1.8-1.6,4.1-2.8,7-3.5c2.9-0.7,6.6-1.1,11-1.1h14.8v11.4h-14.8
		c-1.9,0-3.5,0.2-4.8,0.5c-1.2,0.3-2.2,0.8-2.9,1.5c-0.7,0.7-1.2,1.6-1.5,2.8c-0.3,1.2-0.4,2.6-0.4,4.4v4.1h51.2v10.7h-51.2v4.2
		c0,1.8,0.1,3.3,0.4,4.5c0.3,1.2,0.7,2.1,1.5,2.8c0.7,0.7,1.7,1.2,2.9,1.5c1.3,0.3,2.9,0.4,4.8,0.4h41.9V84H135.5z"/>
	<path class="st0" d="M223.6,79.6c-1.1,1.8-2.4,3.2-3.8,4.2c-1.4,1-3.4,1.5-6.1,1.5c-2.6,0-4.7-0.5-6.1-1.5c-1.4-1-2.7-2.4-3.8-4.2
		L169.3,24h16.2L214,70.4L242.3,24h15.9L223.6,79.6z"/>
	<path class="st0" d="M301.4,70.2h-41.6L251.3,84h-15.4l34.9-55.5c1.1-1.7,2.3-3.1,3.8-4.2c1.5-1.1,3.6-1.7,6.3-1.7
		c2.7,0,4.8,0.6,6.3,1.7c1.5,1.1,2.7,2.5,3.8,4.2L325.6,84h-15.5L301.4,70.2z M266.1,59.9h29.1l-14.5-23.7L266.1,59.9z"/>
</g>
<path class="st0" d="M47.6,1.9c0.9-0.1,1.8-0.1,2.7-0.2c2.8,0.1,5.6,0.1,8.4,0.2c0.7,0.1,1.3,0.1,2,0.2c1.2,0.2,2.3,0.5,3.5,0.7
	C65.1,3,66,3.2,66.8,3.4c0.1,0.1,0.3,0.1,0.4,0.2C68,3.7,68.7,4,69.4,4.2c0.9,0.3,1.8,0.7,2.7,1c0.7,0.3,1.5,0.6,2.2,0.9
	c1.2,0.6,2.3,1.2,3.5,1.8c1.1,0.7,2.2,1.4,3.3,2.1c0.6,0.4,1.3,0.8,1.9,1.1c0.3,0.3,0.6,0.5,1,0.8c0.7,0.6,1.4,1.1,2.1,1.7
	c0.3,0.3,0.6,0.5,0.9,0.8c0.6,0.5,1.2,1,1.8,1.6c0.4,0.4,0.8,0.8,1.1,1.2c0.5,0.5,0.9,1,1.4,1.5c0.4,0.4,0.8,0.8,1.1,1.3
	c0.5,0.7,1.1,1.4,1.6,2c0.2,0.2,0.4,0.5,0.5,0.7c1.2,1.9,2.4,3.8,3.5,5.7c0.8,1.7,1.6,3.4,2.4,5.1c0.1,0.1,0.1,0.2,0.2,0.2l0,0
	c0.3,0.9,0.6,1.8,1,2.7c0.3,1,0.6,2,0.9,2.9c0.2,0.8,0.4,1.7,0.6,2.5c0.2,0.9,0.3,1.8,0.5,2.8c0.1,0.7,0.1,1.3,0.2,2
	c0,0.2,0.1,0.5,0.1,0.7c0,0,0,0,0,0c0.1,0.5,0.1,1.1,0.2,1.6c0,1.3,0,2.5,0,3.8c0,0.4,0,0.7,0,1.1c-0.1,1.2-0.1,2.4-0.2,3.6
	c-0.2,1.2-0.3,2.5-0.5,3.7c-0.1,0.7-0.3,1.4-0.4,2.2c-0.5,2-1.1,3.9-1.6,5.9c-0.4,1-0.7,1.9-1.1,2.9c-0.9,1.7-1.7,3.4-2.6,5.1
	c-0.2,0.4-0.5,0.8-0.7,1.3c-0.3,0.6-0.7,1.1-1,1.7c-1.4,1.8-2.7,3.6-4.1,5.5c-0.1,0.2-0.2,0.3-0.4,0.5c-0.7,0.7-1.3,1.4-2,2.1
	c-0.2,0.2-0.5,0.5-0.7,0.7c-0.8,0.7-1.6,1.5-2.4,2.2c-0.2,0.1-0.3,0.3-0.5,0.4c-1.8,1.3-3.5,2.6-5.3,3.9c-0.5,0.3-1,0.7-1.5,1
	c-0.5,0.3-0.9,0.5-1.4,0.8c-1,0.5-2,1-2.9,1.5c-0.4,0.2-0.8,0.4-1.3,0.6c-0.4,0.2-0.9,0.4-1.3,0.5c-0.8,0.3-1.7,0.6-2.5,0.9
	c-0.1,0-0.1,0-0.2,0.1c-0.1,0-0.2,0.1-0.4,0.1c-0.1,0-0.1,0-0.2,0.1c-0.1,0-0.2,0.1-0.3,0.1c-0.1,0-0.1,0-0.2,0.1
	c-0.1,0-0.1,0-0.2,0.1c-0.5,0.1-1,0.2-1.5,0.4l-0.1,0l0,0.1c-0.1,0.1-0.2,0.2-0.4,0.2c-0.8,0.2-1.7,0.4-2.5,0.5
	c-0.8,0.1-1.6,0.3-2.4,0.4c-0.8,0.1-1.6,0.2-2.4,0.3c-1,0.1-1.9,0.1-2.9,0.2c-1.8,0-3.5,0-5.3,0c-0.1,0-0.2,0-0.4,0
	c-0.8-0.1-1.6-0.1-2.4-0.2c-1-0.1-2.1-0.3-3.1-0.4c-0.9-0.2-1.8-0.4-2.8-0.5c-0.3-0.1-0.6-0.1-0.9-0.2c-0.6-0.2-1.2-0.4-1.9-0.5
	c-0.9-0.3-1.7-0.6-2.6-0.9c-1-0.3-1.9-0.7-2.9-1c-0.1-0.1-0.2-0.1-0.4-0.2c-0.8-0.4-1.6-0.7-2.4-1.1c-0.8-0.4-1.6-0.8-2.4-1.3
	c-0.3-0.1-0.5-0.3-0.8-0.4c-0.7-0.4-1.4-0.9-2.1-1.3c-2.8-2.3-5.6-4.5-8.4-6.8c-0.1-0.1-0.1-0.1-0.2-0.2c-0.4-0.5-0.9-1-1.3-1.5
	c-1.8-2.2-3.6-4.5-5.4-6.8c-0.4-0.7-0.8-1.3-1.2-2c-0.2-0.3-0.4-0.6-0.5-0.9c-0.5-0.9-1-1.8-1.5-2.7c-0.3-0.7-0.6-1.4-0.9-2
	c-0.1-0.2-0.1-0.3-0.2-0.5c-0.3-0.9-0.7-1.8-1-2.8c-0.5-1.6-1-3.3-1.5-4.9c0-0.1,0-0.2,0-0.4c-0.2-1.2-0.5-2.3-0.7-3.5
	c-0.1-0.5-0.1-1.1-0.2-1.6c-0.1-1.1-0.2-2.2-0.3-3.3c0-0.9,0-1.8,0-2.7c0-0.9,0-1.8,0-2.8c0.1-0.9,0.1-1.8,0.2-2.7
	c0.1-0.9,0.2-1.7,0.3-2.6c0.2-1.1,0.4-2.2,0.6-3.3C4,39.7,4.5,38,5,36.3c0.3-0.8,0.6-1.6,0.9-2.4c0.6-2.1,1.8-3.9,2.7-5.9
	C8.8,27.7,9,27.4,9.2,27c0.3-0.5,0.6-1,0.9-1.5c1.4-1.9,2.7-3.8,4.1-5.6c0.2-0.3,0.4-0.5,0.6-0.8c0.6-0.6,1.1-1.2,1.7-1.8
	c0.4-0.4,0.7-0.7,1.1-1.1c0.6-0.6,1.3-1.2,1.9-1.8c0.3-0.2,0.5-0.4,0.8-0.6c0.8-0.6,1.6-1.3,2.4-1.9c0.1-0.1,0.1-0.1,0.2-0.2
	c0.5-0.3,1-0.7,1.5-1c0.7-0.5,1.3-1.1,2-1.5c0.7-0.4,1.4-0.8,2.2-1.1c1.8-0.9,3.5-1.7,5.3-2.6c1-0.4,1.9-0.7,2.9-1.1
	C37.6,4,38.3,3.8,39,3.6c0.1,0,0.1,0,0.2,0C40.1,3.3,41,3.1,42,2.8c1-0.2,1.9-0.4,2.9-0.5C45.8,2.1,46.7,2,47.6,1.9z M75,80.1
	c0.1,0,0.1,0,0.1-0.1c0.7-0.8,1.5-1.6,2.2-2.3c0.2-0.3,0.5-0.6,0.7-1c0.4-0.7,0.8-1.3,1.2-2c0.4-1,0.9-2,1.3-3
	c0.1-0.2,0.1-0.4,0.2-0.5c0.2-0.7,0.5-1.4,0.7-2c0.2-0.9,0.5-1.8,0.7-2.7c0.2-0.9,0.4-1.8,0.6-2.8c0.1-0.8,0.2-1.6,0.4-2.4
	c0.2-1.1,0.5-2.2,0.2-3.3c-1.1,0.1-2,0.2-3,0.4c-0.8,0.2-1.7,0.4-2.5,0.6c-0.9,0.2-1.8,0.5-2.8,0.7c-1.2,0.4-2.4,0.9-3.7,1.3
	c-0.7,0.3-1.3,0.6-2,0.9c-1.1,0.6-2.3,1.1-3.3,1.8c-1,0.7-1.9,1.7-2.9,2.6c-1.7,1.5-2.8,3.4-3.3,5.7c-0.1,1.3-0.2,2.5-0.4,3.8
	c0.1,0.6,0.2,1.1,0.2,1.7c0.1,0.4,0.3,0.9,0.4,1.3c0.3,0.9,0.4,0.9,1.2,0.2c0.6-0.5,1.1-1,1.7-1.5c0.4-0.3,0.7-0.7,1.1-1
	c0.5-0.5,1.1-1,1.6-1.5c0.2-0.2,0.5-0.4,0.7-0.6c0.1-0.1,0.2-0.2,0.3-0.2l0,0c0.8-0.7,1.6-1.4,2.4-2.2c0.1-0.1,0.3-0.3,0.4-0.4
	c0.9-0.8,1.7-1.5,2.6-2.3c0,0,0.1,0,0.1-0.1c0.9-0.8,1.7-1.6,2.6-2.4c0.1,0,0.1-0.1,0.1-0.1c0.4-0.4,0.9-0.7,1.3-1.1
	c0,0,0.1,0.1,0.1,0.1c-0.1,0.2-0.3,0.4-0.4,0.6c-0.4,0.5-0.7,0.9-1.1,1.4c-0.4,0.4-0.7,0.9-1.1,1.3l0,0c-0.1,0.1-0.2,0.2-0.3,0.2
	c-0.7,0.9-1.5,1.8-2.2,2.7c-1.5,1.8-3,3.6-4.6,5.4c-0.8,1-1.6,1.9-2.4,2.9c-0.1,0.2-0.3,0.3-0.4,0.5c-0.2,0.3-0.5,0.5-0.7,0.8
	c-0.2,0.3-0.3,0.7-0.5,1c0.3,0.1,0.7,0.3,1,0.4c0.5,0.1,1,0.2,1.5,0.3c1.4-0.1,2.8-0.1,4.2-0.2c0.9-0.3,1.7-0.6,2.6-1
	c0.9-0.6,1.7-1.1,2.6-1.7C74.8,80.2,74.9,80.2,75,80.1z M44.9,79.2c0.3,0.4,0.5,0.4,0.7,0c0.2-0.6,0.4-1.1,0.6-1.7
	c0.1-0.5,0.1-1.1,0.2-1.6c-0.1-1.4-0.2-2.7-0.4-4.1c-0.3-0.8-0.6-1.6-0.9-2.4c-0.1-0.1-0.1-0.1-0.2-0.2c-0.7-0.9-1.3-1.8-2-2.7
	c-1.7-2-3.9-3.5-6.2-4.6c-1.8-0.7-3.7-1.4-5.5-2.2c-0.9-0.2-1.8-0.5-2.7-0.7c-0.9-0.2-1.8-0.4-2.8-0.6c-1-0.1-2.1-0.2-3.1-0.4
	c0,0.5-0.1,1,0,1.5c0.2,1.6,0.5,3.1,0.7,4.7c0.1,0.7,0.3,1.3,0.4,2c0.3,1,0.6,2.1,0.9,3.1c0.7,1.8,1.5,3.5,2.2,5.3
	c0.6,0.9,1.1,1.8,1.7,2.7c0.1,0.1,0.2,0.2,0.3,0.3c1.3,2,3,3.4,5.2,4.3c1,0.3,1.9,0.6,2.9,0.9c0.3,0,0.5,0.1,0.8,0.1
	c1.5-0.1,3-0.2,4.6-0.3c0.3-0.1,0.6-0.2,1-0.4c-0.1-0.3-0.2-0.6-0.4-0.9c-0.1-0.2-0.4-0.4-0.6-0.6c-0.2-0.3-0.5-0.5-0.7-0.8
	c-0.7-0.8-1.4-1.7-2.1-2.5c-0.1-0.1-0.2-0.2-0.3-0.3c-0.8-0.9-1.5-1.8-2.3-2.7c-0.1-0.1-0.1-0.1-0.2-0.2c-0.9-1.1-1.8-2.2-2.7-3.3
	c-1.3-1.6-2.7-3.2-4-4.8c-0.1-0.2-0.2-0.3-0.3-0.5c0.1-0.1,0.1-0.1,0.2-0.2c0.3,0.2,0.5,0.4,0.8,0.6c1.1,0.9,2.2,1.9,3.3,2.8
	c0.9,0.8,1.9,1.7,2.8,2.5c0.1,0.1,0.2,0.2,0.4,0.4c0.7,0.7,1.5,1.3,2.2,2c0.2,0.2,0.4,0.4,0.7,0.6c0.7,0.6,1.4,1.2,2.1,1.8
	c0.4,0.4,0.8,0.7,1.1,1.1C43.7,78.2,44.3,78.7,44.9,79.2z M53.1,12.4c-0.2,0.1-0.5,0.1-0.6,0.2c-0.4,0.5-0.7,1-1.1,1.5
	c-0.7,1-1.3,2-2,2.9c-0.6,0.9-1.1,1.7-1.7,2.6c-0.1,0.2-0.2,0.4-0.4,0.6c-0.4,0.8-0.9,1.6-1.3,2.4c-1,1.8-1.9,3.7-2.9,5.5
	c-0.7,1.7-1.4,3.4-2,5.1c-0.3,1-0.6,2-0.9,3c-0.2,1-0.5,2.1-0.7,3.1c-0.1,0.7-0.2,1.4-0.3,2c-0.1,0.9-0.1,1.7-0.2,2.6
	c0.2,2.1,0.5,4.1,0.7,6.2c0.3,0.9,0.6,1.7,1,2.6c0.4,0.7,0.8,1.5,1.2,2.2c0.2,0.2,0.4,0.5,0.5,0.7c0.7,0.8,1.4,1.6,2.2,2.4
	c0.2,0.2,0.4,0.4,0.6,0.5c0.8,0.6,1.6,1.2,2.4,1.7c0.9,0.5,1.8,1,2.7,1.4c0.9,0.5,1,0.4,1-0.6c0.1-0.9,0.1-1.8,0.2-2.7
	c0.1-1.3,0.1-2.7,0.2-4c0-0.5,0-1,0-1.5c0.1-0.9,0.1-1.8,0.2-2.8c0-0.5,0-1.1,0-1.6c0.1-0.7,0.1-1.5,0.2-2.2
	c0.1-1.6,0.1-3.2,0.2-4.7c0-0.8,0.1-1.6,0.1-2.4c0-0.4,0-0.7,0-1.1c0.1-1.1,0.1-2.1,0.3-3.2c0-0.2,0.3-0.5,0.5-0.7
	c0.1,0.9,0.2,1.7,0.4,2.6c0.1,1.3,0.1,2.6,0.2,3.9c0,0.3,0,0.6,0,0.9c0.1,1,0.1,2.1,0.2,3.1c0.1,1.3,0.1,2.7,0.2,4
	c0,0.7,0.1,1.4,0.1,2c0,0.7,0,1.4,0,2.2c0.1,0.9,0.1,1.8,0.2,2.8c0.1,1.1,0.1,2.2,0.2,3.3c0.1,1,0.1,2,0.2,2.9
	c0.1,0,0.2,0.2,0.2,0.1c1.3-0.7,2.6-1.4,3.9-2.1c0.7-0.5,1.4-1,2.1-1.5c0.2-0.2,0.4-0.5,0.7-0.7c0.6-0.6,1.1-1.3,1.7-1.9
	c0.6-0.9,1.1-1.8,1.7-2.7c0.4-1,0.7-2.1,1.1-3.1c0.2-0.8,0.4-1.6,0.5-2.4c0.1-0.6,0.1-1.2,0.2-1.8c-0.1-1.5-0.1-2.9-0.2-4.4
	c-0.1-0.8-0.3-1.6-0.4-2.4c-0.2-0.7-0.3-1.5-0.5-2.2c-0.3-1.1-0.6-2.2-1-3.3c-0.4-0.9-0.7-1.8-1.1-2.8c-0.4-0.9-0.7-1.7-1.1-2.6
	c-0.4-0.8-0.8-1.6-1.1-2.4c0-0.1-0.1-0.1-0.1-0.2c-0.6-1.1-1.1-2.2-1.7-3.3c-0.3-0.5-0.6-1-0.9-1.5c-0.2-0.3-0.4-0.6-0.5-0.9
	c-1.2-1.8-2.4-3.6-3.5-5.3C54.2,13.8,53.7,13.1,53.1,12.4z M53.1,65.2c-0.6,0-1.2,0-1.8,0c-0.1,0.1-0.2,0.2-0.2,0.3c0,1.5,0,3,0,4.4
	c0,0.7,0,1.3,0,2c0,0.5,0,1,0,1.5c0,1.1,0,2.2,0,3.3c0,0.1-0.1,0.2-0.1,0.3c0,2.9,0,5.8,0,8.7c0,1.8,0,3.6,0,5.5c1.3,0,2.7,0,4,0
	c0.1-0.3,0.2-0.5,0.2-0.8c0-1.6,0-3.3,0-4.9c0-0.5-0.1-1-0.1-1.5c0-0.4,0-0.7,0-1.1c0-0.9,0-1.8,0-2.8c0-0.9,0-1.8,0-2.7
	c0-1.5,0-2.9,0-4.4c0-1.2-0.1-2.5-0.1-3.7c0-1,0-1.9,0-2.9c0-0.4,0-0.8,0-1.3C54.1,65.2,53.6,65.2,53.1,65.2z"/>
</svg>
